<svg width="100" height="100" viewBox="0 0 100 100" fill="none" xmlns="http://www.w3.org/2000/svg">
<path d="M33.1331 49.4619L39.4848 39.6983C39.4848 39.6983 29.997 35.9293 25.5773 39.3076C21.1578 42.6877 17 52.0467 17 52.0467L21.7111 54.7782C21.7111 54.7782 27.6741 43.2233 33.1331 49.4619Z" fill="#0263BD" fill-opacity="0.8"/>
<path d="M50.5389 66.8665L60.3025 60.5149C60.3025 60.5149 64.0715 70.0027 60.6932 74.4224C57.3131 78.84 47.9541 82.9998 47.9541 82.9998L45.2246 78.2886C45.2246 78.2886 56.7795 72.3256 50.5389 66.8665Z" fill="#0263BD" fill-opacity="0.8"/>
<path d="M43.2412 64.0696L41.565 62.3954C38.5181 70.3141 31.3611 68.64 31.3611 68.64C31.3611 68.64 29.6868 61.4829 37.6057 58.436L35.9314 56.7618C31.5138 56 25.8782 61.3301 24.9637 66.5075C24.0512 71.6849 23.8984 76.1006 23.8984 76.1006C23.8984 76.1006 28.314 75.9498 33.4934 75.0353C38.6727 74.1209 44.0029 68.4873 43.2412 64.0696Z" fill="#57AEFF" fill-opacity="0.8"/>
<path d="M81.141 18.8598C74.2298 15.6206 56.728 21.6786 46.9942 34.5883C39.5773 44.4213 35.6079 51.0468 35.6079 51.0468L41.4994 56.9383L43.0625 58.5014L48.9521 64.391C48.9521 64.391 55.5815 60.4237 65.4145 53.0088C78.3202 43.2728 84.3802 25.771 81.141 18.8598ZM51.8661 48.1347C50.2394 46.5081 50.2394 43.8698 51.8661 42.2433C53.4927 40.6168 56.1289 40.6166 57.7575 42.2453C59.3842 43.872 59.3842 46.5082 57.7575 48.1349C56.1289 49.7614 53.4926 49.7614 51.8661 48.1347ZM61.6316 38.3712C59.5289 36.2665 59.5289 32.8586 61.6316 30.756C63.7324 28.6532 67.1422 28.6532 69.245 30.756C71.3477 32.8587 71.3477 36.2665 69.245 38.3712C67.1422 40.4719 63.7324 40.4719 61.6316 38.3712Z" fill="#0263BD" fill-opacity="0.8"/>
<circle cx="50" cy="50" r="49" stroke="#0263BD" stroke-opacity="0.8" stroke-width="2"/>
</svg>
