<svg width="100" height="100" viewBox="0 0 100 100" fill="none" xmlns="http://www.w3.org/2000/svg">
<path d="M75.4243 65.3862C79.5283 67.6395 81.8726 71.6541 81.5788 75.6686C81.3819 78.1162 81.285 78.2165 78.1593 78.6083C76.2057 78.9028 63.8968 79 51.2002 79C36.8408 79 21.8 78.7054 20.7247 78.4108C16.4269 77.3327 18.7712 69.4979 24.4381 65.7779C28.8328 62.9386 37.8191 58.6294 40.2634 58.1374C43.586 57.4511 43.9767 55.3952 40.2634 48.7356C39.3851 47.2658 38.4068 42.7623 38.3099 38.0614C38.213 30.4209 39.6789 25.2311 46.321 22.6863C47.6901 22.1974 49.056 22 50.325 22C54.7197 22 58.8238 24.4476 60.4835 28.0736C62.9247 32.8716 61.9495 45.7019 59.4083 50.3057C56.4764 55.4955 56.7702 57.1627 59.9959 58.0434C62.1464 58.6326 68.7885 61.7665 75.4305 65.3893L75.4243 65.3862ZM22.2876 62.4497C20.7247 63.5278 19.2588 64.8973 18.0867 66.27C14.3733 66.27 11.5415 66.1728 11.2477 66.0725C8.8065 65.4833 10.1724 60.9799 13.3981 59.0212C15.8393 57.4542 20.8216 55.0066 22.1907 54.712C23.9505 54.3203 24.3412 53.2422 22.1907 49.5222C21.7031 48.7387 21.1155 46.1908 21.1155 43.5489C21.0186 39.2398 21.8969 36.3001 25.6102 35.0278C28.7359 33.8525 32.2523 35.3224 33.5213 37.9674C34.7903 40.7096 34.1089 47.7609 32.7399 50.3088C31.177 53.3456 31.4709 54.1291 33.2275 54.618C33.6182 54.7151 34.3996 55.1069 35.4749 55.5989C31.177 57.3633 25.3164 60.5944 22.2876 62.456V62.4497ZM86.5611 58.7266C88.9054 59.999 90.1744 62.1551 89.9806 64.4084C89.8837 65.7811 89.8837 65.8782 88.124 66.0725C87.6364 66.1697 85.389 66.27 82.4571 66.27C81.1881 64.6058 79.4283 63.0389 77.281 61.9608C73.2769 59.6103 68.3915 57.0625 64.7782 55.4955C65.7565 55.1037 66.6349 54.8092 67.0256 54.712C68.8822 54.3203 69.176 53.2422 67.0256 49.5222C66.6349 48.7387 65.9503 46.1908 65.9503 43.5489C65.8534 39.2398 66.6349 36.3001 70.3451 35.0278C73.5676 33.8525 77.084 35.3224 78.2562 37.9674C79.5252 40.7096 79.0376 47.7609 77.6685 50.3088C76.1057 53.3456 76.2995 54.1291 77.9624 54.618C79.1345 55.0097 82.8478 56.7741 86.558 58.7328L86.5611 58.7266Z" fill="#0263BD" fill-opacity="0.8"/>
<circle cx="50" cy="50" r="49" stroke="#0263BD" stroke-opacity="0.8" stroke-width="2"/>
</svg>
