<svg width="100" height="100" viewBox="0 0 100 100" fill="none" xmlns="http://www.w3.org/2000/svg">
<path d="M81.9234 29.4946C81.604 29.3345 81.248 29.2614 80.8914 29.2828C80.5348 29.3042 80.1901 29.4193 79.8921 29.6165L60.6562 42.4946V31.3024C60.6568 30.9161 60.5473 30.5376 60.3404 30.2114C60.1336 29.8851 59.8379 29.6246 59.4883 29.4604C59.1386 29.2962 58.7493 29.2352 58.3661 29.2844C57.983 29.3336 57.6218 29.4911 57.325 29.7383L41.3187 42.9618H34.25V23.9087C34.2615 23.4391 34.1099 22.9801 33.821 22.6097C33.5321 22.2394 33.1238 21.9806 32.6656 21.8774L24.5406 20.0493C24.2408 19.982 23.9297 19.9836 23.6307 20.054C23.3316 20.1244 23.0524 20.2617 22.8141 20.4555C22.5702 20.6531 22.3754 20.9044 22.245 21.1899C22.1146 21.4754 22.0522 21.7872 22.0625 22.1008V42.9618H20.0312C19.4925 42.9618 18.9759 43.1758 18.5949 43.5567C18.214 43.9376 18 44.4543 18 44.993V77.493C18 78.0317 18.214 78.5484 18.5949 78.9293C18.9759 79.3102 19.4925 79.5242 20.0312 79.5242H80.9687C81.5074 79.5242 82.0241 79.3102 82.405 78.9293C82.7859 78.5484 82.9999 78.0317 82.9999 77.493V31.3024C83.0027 30.9315 82.9038 30.5669 82.714 30.2482C82.5242 29.9295 82.2508 29.6689 81.9234 29.4946ZM26.125 24.6805L30.1875 25.5743V42.9618H26.125V24.6805ZM78.9375 75.4617H22.0625V47.0243H42.0297C42.5043 47.0252 42.9642 46.8599 43.3297 46.5571L56.5937 35.5883V46.3133C56.5932 46.6823 56.6931 47.0445 56.8829 47.361C57.0727 47.6775 57.3451 47.9363 57.6709 48.1096C57.9967 48.2829 58.3635 48.3643 58.732 48.3448C59.1005 48.3254 59.4567 48.2059 59.7625 47.9993L78.9375 35.1211V75.4617Z" fill="#0263BD" fill-opacity="0.8"/>
<path d="M42.25 51.0664H26V55.1289H42.25V51.0664Z" fill="#57AEFF" fill-opacity="0.8"/>
<path d="M42.25 59H26V63.0625H42.25V59Z" fill="#0263BD" fill-opacity="0.8"/>
<path d="M42.25 67H26V71.0625H42.25V67Z" fill="#57AEFF" fill-opacity="0.8"/>
<path d="M56.5947 53H52.5322V59.0937H56.5947V53Z" fill="#57AEFF" fill-opacity="0.8"/>
<path d="M56.5947 65.2852H52.5322V71.3789H56.5947V65.2852Z" fill="#57AEFF" fill-opacity="0.8"/>
<path d="M64.7187 53.0979H60.6562V59.1916H64.7187V53.0979Z" fill="#0263BD" fill-opacity="0.8"/>
<path d="M64.7187 65.2852H60.6562V71.3789H64.7187V65.2852Z" fill="#57AEFF" fill-opacity="0.8"/>
<path d="M72.8428 53.0979H68.7803V59.1916H72.8428V53.0979Z" fill="#57AEFF" fill-opacity="0.8"/>
<path d="M72.8428 65.2852H68.7803V71.3789H72.8428V65.2852Z" fill="#57AEFF" fill-opacity="0.8"/>
<circle cx="50" cy="50" r="49" stroke="#0263BD" stroke-opacity="0.8" stroke-width="2"/>
</svg>
