<svg width="100" height="100" viewBox="0 0 100 100" fill="none" xmlns="http://www.w3.org/2000/svg">
<path d="M47.3557 22.2955C48.1935 20.417 48.6126 19.4777 49.1959 19.1885C49.7026 18.9372 50.2975 18.9372 50.8041 19.1885C51.3875 19.4777 51.8066 20.417 52.6443 22.2955L59.3175 37.2582C59.5654 37.8135 59.6892 38.0912 59.881 38.3038C60.0503 38.492 60.2577 38.6425 60.4889 38.7455C60.7506 38.862 61.0531 38.8939 61.6582 38.9577L77.9586 40.6772C80.0051 40.893 81.0281 41.0009 81.4837 41.466C81.8793 41.87 82.0631 42.4357 81.9806 42.995C81.8858 43.6388 81.1215 44.3271 79.5929 45.704L67.4165 56.6711C66.9649 57.078 66.7387 57.2816 66.5958 57.5294C66.4691 57.7489 66.3898 57.9923 66.3634 58.244C66.3334 58.5287 66.3964 58.826 66.5227 59.421L69.9237 75.4462C70.3507 77.4583 70.5642 78.4641 70.2624 79.0407C70 79.5419 69.5187 79.8913 68.961 79.9857C68.3191 80.0942 67.4277 79.5806 65.6451 78.5531L51.4465 70.3681C50.9196 70.0643 50.6561 69.9128 50.376 69.8531C50.1281 69.8006 49.8719 69.8006 49.624 69.8531C49.3439 69.9128 49.0805 70.0643 48.5536 70.3681L34.3551 78.5531C32.5725 79.5806 31.6812 80.0942 31.0392 79.9857C30.4815 79.8913 30 79.5419 29.7379 79.0407C29.4361 78.4641 29.6496 77.4583 30.0765 75.4462L33.4774 59.421C33.6036 58.826 33.6667 58.5287 33.6368 58.244C33.6103 57.9923 33.5311 57.7489 33.4044 57.5294C33.2613 57.2816 33.0354 57.078 32.5835 56.6711L20.4074 45.704C18.8787 44.3271 18.1144 43.6388 18.0194 42.995C17.9369 42.4357 18.1207 41.87 18.5164 41.466C18.972 41.0009 19.9952 40.893 22.0417 40.6772L38.3421 38.9577C38.9471 38.8939 39.2495 38.862 39.5111 38.7455C39.7425 38.6425 39.9497 38.492 40.1193 38.3038C40.3109 38.0912 40.4348 37.8135 40.6825 37.2582L47.3557 22.2955Z" stroke="#0263BD" stroke-opacity="0.8" stroke-width="5" stroke-linecap="round" stroke-linejoin="round"/>
<circle cx="50" cy="50" r="49" stroke="#0263BD" stroke-opacity="0.8" stroke-width="2"/>
</svg>
