<svg width="111" height="106" viewBox="0 0 111 106" fill="none" xmlns="http://www.w3.org/2000/svg">
<path d="M41.5909 103H23.4194V25.723V3H41.5909V103Z" stroke="white" stroke-width="4.8" stroke-miterlimit="10"/>
<path d="M5.24805 25H105.191V20.5908L41.6125 3H23.4065L5.24805 20.5908V25Z" stroke="white" stroke-width="4.8" stroke-miterlimit="10"/>
<path d="M110.238 103H0.200195" stroke="white" stroke-width="4.8" stroke-miterlimit="10"/>
<path d="M96.058 25V41.0847C96.0076 42.6388 96.3767 44.1778 97.1264 45.5391C97.8761 46.9003 98.9784 48.0334 100.317 48.8186C101.739 49.5648 102.939 50.6754 103.794 52.0374C104.649 53.3994 105.129 54.9642 105.185 56.5725C105.241 58.1809 104.871 59.7754 104.113 61.1938C103.354 62.6122 102.235 63.804 100.868 64.6477C99.501 65.4914 97.9356 65.957 96.3309 65.9972C94.7262 66.0373 93.1396 65.6505 91.7325 64.8762C90.3253 64.1019 89.1479 62.9677 88.32 61.5889C87.492 60.2102 87.0432 58.6361 87.019 57.027" stroke="white" stroke-width="4.8" stroke-miterlimit="10"/>
<path d="M41.5909 75L23.4194 94" stroke="white" stroke-width="4.8" stroke-miterlimit="10"/>
<path d="M23.4194 53L41.5909 71" stroke="white" stroke-width="4.8" stroke-miterlimit="10"/>
<path d="M41.5909 30L23.4194 48" stroke="white" stroke-width="4.8" stroke-miterlimit="10"/>
</svg>
