<svg width="101" height="100" viewBox="0 0 101 100" fill="none" xmlns="http://www.w3.org/2000/svg">
<path d="M77.906 13.043H23.0408C21.2229 13.043 19.749 14.5029 19.749 16.3037V55.4339C19.749 57.2347 21.2229 58.6946 23.0408 58.6946H77.9058C79.7237 58.6946 81.1976 57.2347 81.1976 55.4339V16.3039C81.1978 14.5029 79.7239 13.043 77.906 13.043ZM40.5977 52.1731H26.3328V19.5647H40.5977V52.1731ZM74.614 52.1731H47.1815V39.1297H74.614V52.1731ZM74.614 32.608H47.1815V19.5647H74.614V32.608Z" fill="white"/>
<path d="M97.6602 65.2169H94.3684V6.52169H97.6598C99.4777 6.52169 100.952 5.06173 100.952 3.26075C100.952 1.45996 99.4777 0 97.6598 0C95.6537 0 6.3192 0 3.2918 0C1.47387 0 0 1.45996 0 3.26075C0 5.06153 1.47387 6.52169 3.2918 6.52169H6.58361V65.2169H3.2918C1.47387 65.2169 0 66.6769 0 68.4777C0 70.2785 1.47387 71.7384 3.2918 71.7384C5.03895 71.7384 44.8001 71.7384 47.1839 71.7384V87.8662L29.6834 93.6447C27.9587 94.2142 27.0265 96.0609 27.6015 97.7695C28.177 99.4797 30.0425 100.401 31.7656 99.8318L50.4761 93.6539L69.1866 99.8318C70.9109 100.401 72.7754 99.4783 73.3507 97.7695C73.9257 96.0611 72.9934 94.2142 71.2688 93.6447L53.7683 87.8662V71.7384C56.1549 71.7384 95.9134 71.7384 97.6604 71.7384C99.4783 71.7384 100.952 70.2785 100.952 68.4777C100.952 66.6769 99.4781 65.2169 97.6602 65.2169ZM87.784 65.2169H13.1676V6.52169H87.784V65.2169Z" fill="white"/>
</svg>
