<svg width="102" height="100" viewBox="0 0 102 100" fill="none" xmlns="http://www.w3.org/2000/svg">
<path d="M97.4308 100H17.608C7.88837 100 0 92.186 0 82.5581V3.48837C0 1.5814 1.59646 0 3.52159 0C5.44673 0 7.04319 1.5814 7.04319 3.48837V82.5581C7.04319 88.3256 11.7856 93.0233 17.608 93.0233H97.4308C99.3559 93.0233 100.952 94.6046 100.952 96.5116C100.952 98.4186 99.3559 100 97.4308 100Z" fill="white"/>
<path d="M15.9662 86C15.0929 86 14.1682 85.6974 13.449 85.0922C11.8565 83.7304 11.651 81.3599 13.038 79.746L36.6178 52.7125C39.1864 49.7872 42.885 48.022 46.7893 47.8707C50.6936 47.7698 54.5465 49.182 57.3206 51.9055L62.2009 56.6969C63.4852 57.9578 65.1291 58.563 66.9785 58.563C68.7765 58.5126 70.4204 57.7056 71.602 56.3438L95.1817 29.3104C96.5687 27.7469 98.9832 27.5452 100.627 28.9069C102.22 30.2687 102.425 32.6392 101.038 34.2531L77.4584 61.2865C74.8898 64.2118 71.191 65.977 67.2867 66.1284C63.3311 66.2292 59.5296 64.817 56.7555 62.0935L51.9265 57.3021C50.6422 56.0412 48.9469 55.3856 47.1489 55.436C45.3509 55.4864 43.707 56.2934 42.5254 57.6552L18.9458 84.6887C18.1239 85.5461 17.0451 86 15.9662 86Z" fill="white"/>
</svg>
