<svg width="105" height="100" viewBox="0 0 105 100" fill="none" xmlns="http://www.w3.org/2000/svg">
<path d="M69.1523 30C77.2367 30 83.7903 23.2843 83.7903 15C83.7903 6.71573 77.2367 0 69.1523 0C61.0679 0 54.5142 6.71573 54.5142 15C54.5142 23.2843 61.0679 30 69.1523 30Z" fill="white"/>
<path d="M87.145 31.7846H81.0702L75.3751 41.3671C75.3751 41.3671 69.585 31.9744 69.1104 31.9744C68.6358 31.9744 62.9407 41.3671 62.9407 41.3671L57.1507 31.7846H54.398C49.8419 31.7846 45.1909 33.5873 41.6789 37.0977L32.0922 46.6801L23.1698 27.3255C21.746 24.1946 19.1832 21.9176 15.956 20.7791C12.7288 19.6406 9.3117 19.7355 6.08447 21.1586C0.769028 23.5305 -1.50902 29.8871 1.05378 35.1053L15.5763 66.0346L13.9627 67.6475C11.5897 70.2092 11.5897 74.099 14.0576 76.4709C15.956 78.3684 18.7086 78.7479 21.0816 77.7043L21.841 79.3172C23.3597 82.3532 26.492 84.2507 29.8141 84.2507C30.1938 84.2507 30.5735 84.2507 30.9531 84.1558L33.3261 89.4688C33.6109 90.133 34.1804 90.3227 34.7499 90.3227C35.0346 90.3227 35.2245 90.3227 35.4143 90.2278C43.1976 86.6226 46.6147 77.2299 43.0078 69.545L37.9771 58.8241L46.4249 50.3802C46.8045 50.0007 47.1842 49.9058 47.6588 49.9058C48.7029 49.9058 49.4623 50.6648 49.4623 51.5187V100H88.8535V53.3213C88.8535 52.2777 89.6128 51.5187 90.6569 51.5187C91.701 51.5187 92.4604 52.2777 92.4604 53.3213V93.7382C92.4604 97.2486 95.213 100 98.725 100C102.237 100 104.99 97.2486 104.99 93.7382V49.811C105.085 39.849 97.0165 31.7846 87.145 31.7846ZM18.0442 63.6628L6.84382 39.849C8.83711 40.3234 10.8304 40.2285 12.7288 39.3747C16.3357 37.572 18.0442 33.3026 16.2408 29.6974C14.817 26.6614 11.1152 25.3331 8.07776 26.6614C7.31841 27.0409 6.93874 27.8948 7.31841 28.8435C7.69809 29.6025 8.55235 29.982 9.50154 29.6025C11.0202 28.8435 12.8237 29.6025 13.4881 31.1205C14.5322 33.1129 13.583 35.6745 11.4948 36.6233C10.0711 37.2874 8.55235 37.3823 7.22349 36.7182C5.79971 36.2438 4.66069 35.2002 4.09118 33.777C2.28773 30.1718 3.99626 25.7126 7.60317 23.91C9.88121 22.7715 12.5389 22.6766 14.9119 23.5305C17.2849 24.3844 19.1832 26.187 20.3223 28.5589C23.2647 34.7258 20.607 42.1261 14.2475 45.0672C13.4881 45.4467 13.1084 46.3006 13.4881 47.2493L20.7019 62.2396C19.6578 62.5242 18.8036 62.9986 18.0442 63.6628ZM24.5936 77.9889L23.5495 75.7119L25.8275 73.4349L29.4344 81.1198C27.4412 81.0249 25.4479 79.8864 24.5936 77.9889ZM40.0653 70.7784C42.723 76.5658 40.7298 83.2071 35.4143 86.5277L27.8208 70.3989C28.5802 68.1219 28.1056 65.6551 26.3021 63.8525C25.6377 63.1884 24.8784 62.714 24.0241 62.4294L17.0001 47.0596C20.7969 44.7826 23.2647 40.9876 24.2139 36.9079L40.0653 70.7784Z" fill="white"/>
</svg>
